<?xml version="1.0" encoding="utf-8"?><svg viewBox="0 0 512 512" xmlns="http://www.w3.org/2000/svg" xmlns:xlink="http://www.w3.org/1999/xlink"><style>:root>svg{display:none}:root>svg:target{display:block}</style><svg fill="none" viewBox="0 0 11 11" id="arrow" xmlns="http://www.w3.org/2000/svg"><path d="M.465 9.475a.734.734 0 0 0 0 1.05c.295.29.775.29 1.07 0l-1.07-1.05zM10.949.973a.75.75 0 0 0-.757-.743h-6.81a.75.75 0 0 0-.757.743c0 .41.338.743.756.743h6.055v5.946c0 .41.338.743.756.743a.75.75 0 0 0 .757-.743V.973zm-9.414 9.552L10.727 1.5 9.657.448.465 9.475l1.07 1.05z" fill="#F2F2F2"/></svg><svg fill="none" viewBox="0 0 22 20" id="burger" xmlns="http://www.w3.org/2000/svg"><path d="M1 1h20M1 10h20M1 19h20" stroke="#F2F2F2" stroke-width="2" stroke-linecap="round"/></svg><svg viewBox="0 0 512 512" id="copyright" xmlns="http://www.w3.org/2000/svg"><!--!Font Awesome Free 6.5.1 by @fontawesome - https://fontawesome.com License - https://fontawesome.com/license/free Copyright 2024 Fonticons, Inc.--><path fill="#fff" d="M256 48a208 208 0 1 1 0 416 208 208 0 1 1 0-416zm0 464a256 256 0 1 0 0-512 256 256 0 1 0 0 512zm-56.6-199.4c-31.2-31.2-31.2-81.9 0-113.1s81.9-31.2 113.1 0c9.4 9.4 24.6 9.4 33.9 0s9.4-24.6 0-33.9c-50-50-131-50-181 0s-50 131 0 181 131 50 181 0c9.4-9.4 9.4-24.6 0-33.9s-24.6-9.4-33.9 0c-31.2 31.2-81.9 31.2-113.1 0z"/></svg><svg viewBox="0 0 320 512" id="facebook" xmlns="http://www.w3.org/2000/svg"><!--!Font Awesome Free 6.5.1 by @fontawesome - https://fontawesome.com License - https://fontawesome.com/license/free Copyright 2024 Fonticons, Inc.--><path fill="#fff" d="M80 299.3V512h116V299.3h86.5l18-97.8H196v-34.6c0-51.7 20.3-71.5 72.7-71.5 16.3 0 29.4.4 37 1.2V7.9C291.4 4 256.4 0 236.2 0 129.3 0 80 50.5 80 159.4v42.1H14v97.8h66z"/></svg><svg viewBox="0 0 448 512" id="instagram" xmlns="http://www.w3.org/2000/svg"><!--!Font Awesome Free 6.5.1 by @fontawesome - https://fontawesome.com License - https://fontawesome.com/license/free Copyright 2024 Fonticons, Inc.--><path fill="#fff" d="M224.1 141c-63.6 0-114.9 51.3-114.9 114.9s51.3 114.9 114.9 114.9S339 319.5 339 255.9 287.7 141 224.1 141zm0 189.6c-41.1 0-74.7-33.5-74.7-74.7s33.5-74.7 74.7-74.7 74.7 33.5 74.7 74.7-33.6 74.7-74.7 74.7zm146.4-194.3c0 14.9-12 26.8-26.8 26.8-14.9 0-26.8-12-26.8-26.8s12-26.8 26.8-26.8 26.8 12 26.8 26.8zm76.1 27.2c-1.7-35.9-9.9-67.7-36.2-93.9-26.2-26.2-58-34.4-93.9-36.2-37-2.1-147.9-2.1-184.9 0-35.8 1.7-67.6 9.9-93.9 36.1s-34.4 58-36.2 93.9c-2.1 37-2.1 147.9 0 184.9 1.7 35.9 9.9 67.7 36.2 93.9s58 34.4 93.9 36.2c37 2.1 147.9 2.1 184.9 0 35.9-1.7 67.7-9.9 93.9-36.2 26.2-26.2 34.4-58 36.2-93.9 2.1-37 2.1-147.8 0-184.8zM398.8 388c-7.8 19.6-22.9 34.7-42.6 42.6-29.5 11.7-99.5 9-132.1 9s-102.7 2.6-132.1-9c-19.6-7.8-34.7-22.9-42.6-42.6-11.7-29.5-9-99.5-9-132.1s-2.6-102.7 9-132.1c7.8-19.6 22.9-34.7 42.6-42.6 29.5-11.7 99.5-9 132.1-9s102.7-2.6 132.1 9c19.6 7.8 34.7 22.9 42.6 42.6 11.7 29.5 9 99.5 9 132.1s2.7 102.7-9 132.1z"/></svg><svg fill="none" viewBox="0 0 237 122" id="logo" xmlns="http://www.w3.org/2000/svg"><path d="M29.143 79.974c.355.056.677.2.966.434.3.233.532.523.7.868.178.345.267.714.267 1.106 0 .495-.127.943-.378 1.344-.253.392-.621.705-1.107.938-.476.224-1.04.336-1.694.336h-3.64v-9.758h3.5c.663 0 1.228.112 1.694.336.467.215.817.509 1.05.882.234.373.35.793.35 1.26 0 .579-.158 1.06-.476 1.442-.308.373-.718.644-1.232.812zm-3.611-.518h2.142c.597 0 1.059-.14 1.386-.42.326-.28.49-.667.49-1.162 0-.495-.164-.882-.49-1.162-.327-.28-.798-.42-1.415-.42h-2.113v3.164zm2.253 4.494c.635 0 1.13-.15 1.485-.448.354-.299.532-.714.532-1.246 0-.541-.187-.966-.56-1.274-.374-.317-.873-.476-1.498-.476h-2.212v3.444h2.253zm9.342-7.672v3.262h3.556v1.05h-3.556v3.36h3.976V85h-5.25v-9.772h5.25v1.05h-3.976zm10.188 7.686h3.416V85h-4.69v-9.758h1.274v8.722zm9.053-8.722V85h-1.274v-9.758h1.274zm6.456 1.036v3.262h3.555v1.05h-3.556v3.36H66.8V85h-5.25v-9.772h5.25v1.05h-3.976zM79.8 75.242 76.12 85h-1.47l-3.682-9.758h1.358l3.066 8.414 3.066-8.414h1.344zm5.681 1.036v3.262h3.556v1.05h-3.556v3.36h3.976V85h-5.25v-9.772h5.25v1.05h-3.976zm16.93-1.036V85h-1.274v-9.758h1.274zM115.266 85h-1.274l-5.124-7.77V85h-1.274v-9.772h1.274l5.124 7.756v-7.756h1.274V85zm18.756-9.758-3.178 6.076V85h-1.274v-3.682l-3.192-6.076h1.414l2.408 4.942 2.408-4.942h1.414zm8.778 9.856c-.906 0-1.732-.21-2.478-.63a4.773 4.773 0 0 1-1.778-1.778c-.43-.765-.644-1.624-.644-2.576s.214-1.806.644-2.562a4.642 4.642 0 0 1 1.778-1.778 4.88 4.88 0 0 1 2.478-.644c.914 0 1.745.215 2.492.644a4.586 4.586 0 0 1 1.764 1.764c.429.756.644 1.615.644 2.576 0 .961-.215 1.82-.644 2.576a4.687 4.687 0 0 1-1.764 1.778c-.747.42-1.578.63-2.492.63zm0-1.106c.681 0 1.292-.159 1.834-.476.55-.317.98-.77 1.288-1.358.317-.588.476-1.27.476-2.044 0-.784-.159-1.465-.476-2.044a3.32 3.32 0 0 0-1.274-1.358c-.542-.317-1.158-.476-1.848-.476-.691 0-1.307.159-1.848.476-.542.317-.971.77-1.288 1.358-.308.579-.462 1.26-.462 2.044 0 .775.154 1.456.462 2.044a3.41 3.41 0 0 0 1.288 1.358 3.63 3.63 0 0 0 1.848.476zm10.837-8.75v6.174c0 .868.21 1.512.63 1.932.43.42 1.022.63 1.778.63.747 0 1.33-.21 1.75-.63.43-.42.644-1.064.644-1.932v-6.174h1.274v6.16c0 .812-.163 1.498-.49 2.058a3.08 3.08 0 0 1-1.33 1.232c-.55.27-1.171.406-1.862.406-.69 0-1.316-.135-1.876-.406a3.102 3.102 0 0 1-1.316-1.232c-.317-.56-.476-1.246-.476-2.058v-6.16h1.274zM169.987 85l-2.324-3.99h-1.54V85h-1.274v-9.758h3.15c.737 0 1.358.126 1.862.378.513.252.896.593 1.148 1.022.252.43.378.92.378 1.47 0 .672-.196 1.265-.588 1.778-.383.513-.962.854-1.736 1.022l2.45 4.088h-1.526zm-3.864-5.012h1.876c.69 0 1.208-.168 1.554-.504.345-.345.518-.803.518-1.372 0-.579-.173-1.027-.518-1.344-.336-.317-.854-.476-1.554-.476h-1.876v3.696zm13.347 5.11c-.644 0-1.222-.112-1.736-.336-.504-.233-.9-.55-1.19-.952a2.48 2.48 0 0 1-.448-1.414h1.358c.047.457.234.845.56 1.162.336.308.822.462 1.456.462.607 0 1.083-.15 1.428-.448.355-.308.532-.7.532-1.176 0-.373-.102-.677-.308-.91a1.965 1.965 0 0 0-.77-.532 12.013 12.013 0 0 0-1.246-.392c-.644-.168-1.162-.336-1.554-.504a2.585 2.585 0 0 1-.994-.784c-.27-.364-.406-.85-.406-1.456 0-.532.136-1.003.406-1.414a2.66 2.66 0 0 1 1.134-.952c.495-.224 1.06-.336 1.694-.336.915 0 1.662.229 2.24.686.588.457.92 1.064.994 1.82h-1.4c-.046-.373-.242-.7-.588-.98-.345-.29-.802-.434-1.372-.434-.532 0-.966.14-1.302.42-.336.27-.504.653-.504 1.148 0 .355.098.644.294.868.206.224.453.397.742.518.299.112.714.243 1.246.392.644.177 1.162.355 1.554.532a2.51 2.51 0 0 1 1.008.798c.28.355.42.84.42 1.456 0 .476-.126.924-.378 1.344-.252.42-.625.76-1.12 1.022-.494.261-1.078.392-1.75.392zm9.407-8.82v3.262h3.556v1.05h-3.556v3.36h3.976V85h-5.25v-9.772h5.25v1.05h-3.976zm10.188 7.686h3.416V85h-4.69v-9.758h1.274v8.722zm13.295-8.722v1.036h-4.242v3.29h3.444v1.036h-3.444V85h-1.274v-9.758h5.516zM60.008 44.728 53.42 70h-7.452l-4.032-16.632L37.76 70h-7.452L23.9 44.728h6.588l3.636 18.396 4.5-18.396h6.768l4.32 18.396 3.672-18.396h6.624zm15.04 25.524c-2.377 0-4.56-.552-6.553-1.656-1.968-1.104-3.54-2.64-4.716-4.608-1.152-1.992-1.728-4.224-1.728-6.696 0-2.472.576-4.692 1.728-6.66 1.176-1.968 2.748-3.504 4.716-4.608 1.992-1.104 4.176-1.656 6.552-1.656 2.376 0 4.548.552 6.516 1.656a11.997 11.997 0 0 1 4.68 4.608c1.152 1.968 1.728 4.188 1.728 6.66 0 2.472-.576 4.704-1.728 6.696a12.324 12.324 0 0 1-4.68 4.608c-1.968 1.104-4.14 1.656-6.516 1.656zm0-5.616c2.015 0 3.623-.672 4.823-2.016 1.224-1.344 1.836-3.12 1.836-5.328 0-2.232-.612-4.008-1.836-5.328-1.2-1.344-2.808-2.016-4.824-2.016-2.04 0-3.672.66-4.896 1.98-1.2 1.32-1.8 3.108-1.8 5.364 0 2.232.6 4.02 1.8 5.364 1.224 1.32 2.856 1.98 4.896 1.98zM104.283 70l-5.256-9.54h-1.476V70h-6.156V44.728h10.332c1.992 0 3.684.348 5.076 1.044 1.416.696 2.472 1.656 3.168 2.88.696 1.2 1.044 2.544 1.044 4.032 0 1.68-.48 3.18-1.44 4.5-.936 1.32-2.328 2.256-4.176 2.808L111.232 70h-6.948zm-6.732-13.896h3.816c1.128 0 1.968-.276 2.52-.828.576-.552.864-1.332.864-2.34 0-.96-.288-1.716-.864-2.268-.552-.552-1.392-.828-2.52-.828h-3.816v6.264zM129.532 70l-8.496-11.16V70h-6.156V44.728h6.156v11.088l8.424-11.088h7.236l-9.792 12.384L137.056 70h-7.524zm22.402.252c-2.376 0-4.56-.552-6.552-1.656-1.968-1.104-3.54-2.64-4.716-4.608-1.152-1.992-1.728-4.224-1.728-6.696 0-2.472.576-4.692 1.728-6.66 1.176-1.968 2.748-3.504 4.716-4.608 1.992-1.104 4.176-1.656 6.552-1.656 2.376 0 4.548.552 6.516 1.656a11.997 11.997 0 0 1 4.68 4.608c1.152 1.968 1.728 4.188 1.728 6.66 0 2.472-.576 4.704-1.728 6.696a12.324 12.324 0 0 1-4.68 4.608c-1.968 1.104-4.14 1.656-6.516 1.656zm0-5.616c2.016 0 3.624-.672 4.824-2.016 1.224-1.344 1.836-3.12 1.836-5.328 0-2.232-.612-4.008-1.836-5.328-1.2-1.344-2.808-2.016-4.824-2.016-2.04 0-3.672.66-4.896 1.98-1.2 1.32-1.8 3.108-1.8 5.364 0 2.232.6 4.02 1.8 5.364 1.224 1.32 2.856 1.98 4.896 1.98zm22.397-19.908v15.12c0 1.512.372 2.676 1.116 3.492.744.816 1.836 1.224 3.276 1.224 1.44 0 2.544-.408 3.312-1.224.768-.816 1.152-1.98 1.152-3.492v-15.12h6.156v15.084c0 2.256-.48 4.164-1.44 5.724a9.196 9.196 0 0 1-3.888 3.528c-1.608.792-3.408 1.188-5.4 1.188-1.992 0-3.78-.384-5.364-1.152-1.56-.792-2.796-1.968-3.708-3.528-.912-1.584-1.368-3.504-1.368-5.76V44.728h6.156zm37.515 0v4.932h-6.696V70h-6.156V49.66h-6.696v-4.932h19.548z" fill="#F2F2F2"/><path d="M151.934 70.252c-2.376 0-4.56-.552-6.552-1.656-1.968-1.104-3.54-2.64-4.716-4.608-1.152-1.992-1.728-4.224-1.728-6.696 0-2.472.576-4.692 1.728-6.66 1.176-1.968 2.748-3.504 4.716-4.608 1.992-1.104 4.176-1.656 6.552-1.656 2.376 0 4.548.552 6.516 1.656a11.997 11.997 0 0 1 4.68 4.608c1.152 1.968 1.728 4.188 1.728 6.66 0 2.472-.576 4.704-1.728 6.696a12.324 12.324 0 0 1-4.68 4.608c-1.968 1.104-4.14 1.656-6.516 1.656zm0-5.616c2.016 0 3.624-.672 4.824-2.016 1.224-1.344 1.836-3.12 1.836-5.328 0-2.232-.612-4.008-1.836-5.328-1.2-1.344-2.808-2.016-4.824-2.016-2.04 0-3.672.66-4.896 1.98-1.2 1.32-1.8 3.108-1.8 5.364 0 2.232.6 4.02 1.8 5.364 1.224 1.32 2.856 1.98 4.896 1.98zm22.397-19.908v15.12c0 1.512.372 2.676 1.116 3.492.744.816 1.836 1.224 3.276 1.224 1.44 0 2.544-.408 3.312-1.224.768-.816 1.152-1.98 1.152-3.492v-15.12h6.156v15.084c0 2.256-.48 4.164-1.44 5.724a9.196 9.196 0 0 1-3.888 3.528c-1.608.792-3.408 1.188-5.4 1.188-1.992 0-3.78-.384-5.364-1.152-1.56-.792-2.796-1.968-3.708-3.528-.912-1.584-1.368-3.504-1.368-5.76V44.728h6.156zm37.515 0v4.932h-6.696V70h-6.156V49.66h-6.696v-4.932h19.548z" fill="#F24B88"/><path stroke="#F2F2F2" stroke-width="2" d="M1 1h235v120H1z"/></svg><svg viewBox="0 0 512 512" id="twitter" xmlns="http://www.w3.org/2000/svg"><!--!Font Awesome Free 6.5.1 by @fontawesome - https://fontawesome.com License - https://fontawesome.com/license/free Copyright 2024 Fonticons, Inc.--><path fill="#fff" d="M459.4 151.7c.3 4.5.3 9.1.3 13.6 0 138.7-105.6 298.6-298.6 298.6-59.5 0-114.7-17.2-161.1-47.1 8.4 1 16.6 1.3 25.3 1.3 49.1 0 94.2-16.6 130.3-44.8-46.1-1-84.8-31.2-98.1-72.8 6.5 1 13 1.6 19.8 1.6 9.4 0 18.8-1.3 27.6-3.6-48.1-9.7-84.1-52-84.1-103v-1.3c14 7.8 30.2 12.7 47.4 13.3-28.3-18.8-46.8-51-46.8-87.4 0-19.5 5.2-37.4 14.3-53C87.4 130.8 165 172.4 252.1 176.9c-1.6-7.8-2.6-15.9-2.6-24C249.5 95.1 296.3 48 354.4 48c30.2 0 57.5 12.7 76.7 33.1 23.7-4.5 46.5-13.3 66.6-25.3-7.8 24.4-24.4 44.8-46.1 57.8 21.1-2.3 41.6-8.1 60.4-16.2-14.3 20.8-32.2 39.3-52.6 54.3z"/></svg><svg viewBox="0 0 448 512" id="whatsapp" xmlns="http://www.w3.org/2000/svg"><!--!Font Awesome Free 6.5.1 by @fontawesome - https://fontawesome.com License - https://fontawesome.com/license/free Copyright 2024 Fonticons, Inc.--><path fill="#fff" d="M380.9 97.1C339 55.1 283.2 32 223.9 32c-122.4 0-222 99.6-222 222 0 39.1 10.2 77.3 29.6 111L0 480l117.7-30.9c32.4 17.7 68.9 27 106.1 27h.1c122.3 0 224.1-99.6 224.1-222 0-59.3-25.2-115-67.1-157zm-157 341.6c-33.2 0-65.7-8.9-94-25.7l-6.7-4-69.8 18.3L72 359.2l-4.4-7c-18.5-29.4-28.2-63.3-28.2-98.2 0-101.7 82.8-184.5 184.6-184.5 49.3 0 95.6 19.2 130.4 54.1 34.8 34.9 56.2 81.2 56.1 130.5 0 101.8-84.9 184.6-186.6 184.6zm101.2-138.2c-5.5-2.8-32.8-16.2-37.9-18-5.1-1.9-8.8-2.8-12.5 2.8-3.7 5.6-14.3 18-17.6 21.8-3.2 3.7-6.5 4.2-12 1.4-32.6-16.3-54-29.1-75.5-66-5.7-9.8 5.7-9.1 16.3-30.3 1.8-3.7.9-6.9-.5-9.7-1.4-2.8-12.5-30.1-17.1-41.2-4.5-10.8-9.1-9.3-12.5-9.5-3.2-.2-6.9-.2-10.6-.2-3.7 0-9.7 1.4-14.8 6.9-5.1 5.6-19.4 19-19.4 46.3 0 27.3 19.9 53.7 22.6 57.4 2.8 3.7 39.1 59.7 94.8 83.8 35.2 15.2 49 16.5 66.6 13.9 10.7-1.6 32.8-13.4 37.4-26.4 4.6-13 4.6-24.1 3.2-26.4-1.3-2.5-5-3.9-10.5-6.6z"/></svg></svg>